<?xml version="1.0" standalone="no"?>
<!DOCTYPE svg PUBLIC "-//W3C//DTD SVG 1.1//EN" "http://www.w3.org/Graphics/SVG/1.1/DTD/svg11.dtd" >
<svg>
<metadata>
Created by FontForge 20110222 at Sat Jan 14 12:57:23 2012
 By www-data
Copyright (c) 2010 by PJ Onori. All rights reserved.
</metadata>
<defs>
<font id="IconicStroke" horiz-adv-x="1551" >
  <font-face 
    font-family="Iconic Stroke"
    font-weight="400"
    font-stretch="normal"
    units-per-em="2048"
    panose-1="2 11 6 3 2 1 2 2 2 4"
    ascent="1638"
    descent="-410"
    x-height="1217"
    cap-height="1372"
    bbox="-0.0108848 -0.00195312 1373 1373"
    underline-thickness="102"
    underline-position="-103"
    unicode-range="U+0020-007E"
  />
    <missing-glyph />
    <glyph glyph-name="space" unicode=" " horiz-adv-x="512" 
 />
    <glyph glyph-name="exclam" unicode="!" horiz-adv-x="1502" 
d="M687 1372l686 -686h-172v-686h-1029v686h-172zM1030 171v615l-343 243l-344 -243v-615h258v258h171v-258h258z" />
    <glyph glyph-name="quotedbl" unicode="&#x22;" horiz-adv-x="1669" 
d="M856 180l0.00195312 514c0 70.667 13.5 137.167 40.5 199.5s63.667 116.666 110 162.999s100.666 83 162.999 110s129.166 40.5 200.499 40.5v-171c-47.333 0 -91.833 -9 -133.5 -27s-78 -42.5 -109 -73.5s-55.5 -67.167 -73.5 -108.5s-27 -85.666 -27 -132.999h343v-514
h-514zM0.00195312 180l0.00195312 514c0 70.667 13.5 137.167 40.5 199.5s63.667 116.666 110 162.999s100.666 83 162.999 110s129.166 40.5 200.499 40.5v-171c-47.333 0 -91.833 -9 -133.5 -27s-78 -42.5 -109 -73.5s-55.5 -67.167 -73.5 -108.5
s-27 -85.666 -27 -132.999h343v-514h-514z" />
    <glyph glyph-name="numbersign" unicode="#" 
d="M0 685c0 63.333 8.16504 124.166 24.498 182.499s39.333 112.833 69 163.5s65.334 96.834 107.001 138.501s88 77.334 139 107.001s105.5 52.667 163.5 69s118.667 24.5 182 24.5c62.667 0 123.167 -8.16699 181.5 -24.5s113 -39.333 164 -69
s97.333 -65.334 139 -107.001s77.334 -87.834 107.001 -138.501s52.667 -105.167 69 -163.5s24.5 -119.166 24.5 -182.499c0 -94.667 -18 -183.5 -54 -266.5s-85 -155.5 -147 -217.5s-134.5 -111 -217.5 -147s-171.833 -54 -266.5 -54s-183.5 18 -266.5 54
s-155.5 85 -217.5 147s-111 134.5 -147 217.5s-54 171.833 -54 266.5zM684.998 1027l-341 -341h255v-344h171v344h257z" />
    <glyph glyph-name="dollar" unicode="$" 
d="M686 1372c94.667 0 183.667 -18 267 -54s156 -85 218 -147s111 -134.667 147 -218s54 -172.333 54 -267s-18 -183.667 -54 -267s-85 -156 -147 -218s-134.667 -111 -218 -147s-172.333 -54 -267 -54s-183.667 18 -267 54s-156 85 -218 147s-111 134.667 -147 218
s-54 172.333 -54 267s18 183.667 54 267s85 156 147 218s134.667 111 218 147s172.333 54 267 54zM1029 686l-342 342v-256h-344v-172h344v-257z" />
    <glyph glyph-name="percent" unicode="%" 
d="M1372 686c0 -94.667 -18 -183.667 -54 -267s-85 -156 -147 -218s-134.667 -111 -218 -147s-172.333 -54 -267 -54s-183.667 18 -267 54s-156 85 -218 147s-111 134.667 -147 218s-54 172.333 -54 267s18 183.667 54 267s85 156 147 218s134.667 111 218 147
s172.333 54 267 54s183.667 -18 267 -54s156 -85 218 -147s111 -134.667 147 -218s54 -172.333 54 -267zM686 343l342 342h-256v344h-172v-344h-257z" />
    <glyph glyph-name="ampersand" unicode="&#x26;" 
d="M1370 685c0 -62.667 -8.16699 -123.165 -24.5 -181.498s-39.333 -113 -69 -164s-65.334 -97.333 -107.001 -139s-87.834 -77.334 -138.501 -107.001s-105.167 -52.667 -163.5 -69s-119.166 -24.5 -182.499 -24.5c-94.667 0 -183.5 18 -266.5 54s-155.5 85 -217.5 147
s-111 134.5 -147 217.5s-54 171.833 -54 266.5s18 183.5 54 266.5s85 155.5 147 217.5s134.5 111 217.5 147s171.833 54 266.5 54c63.333 0 124.166 -8.16699 182.499 -24.5s112.833 -39.333 163.5 -69s96.834 -65.334 138.501 -107.001s77.334 -88 107.001 -139
s52.667 -105.667 69 -164s24.5 -118.833 24.5 -181.5zM943 599.002v-85l171 171l-171 171v-86h-514v86l-171 -171l171 -171v85h514z" />
    <glyph glyph-name="quotesingle" unicode="'" horiz-adv-x="1669" 
d="M856 180v514l514 513v-1027h-514zM0 180v514l514 513v-1027h-514z" />
    <glyph glyph-name="parenleft" unicode="(" 
d="M686 1372c94.667 0 183.667 -18 267 -54s156 -85 218 -147s111 -134.667 147 -218s54 -172.333 54 -267s-18 -183.667 -54 -267s-85 -156 -147 -218s-134.667 -111 -218 -147s-172.333 -54 -267 -54s-183.667 18 -267 54s-156 85 -218 147s-111 134.667 -147 218
s-54 172.333 -54 267s18 183.667 54 267s85 156 147 218s134.667 111 218 147s172.333 54 267 54zM1115 686l-172 172v-86h-171v172h85l-171 171l-172 -171h86v-172h-171v86l-172 -172l172 -171v86h171v-172h-86l172 -172l171 172h-85v172h171v-86z" />
    <glyph glyph-name="parenright" unicode=")" horiz-adv-x="1542" 
d="M1372 172l-172 -172l-600 601l-257 -257l-343 1029l1029 -343l-257 -258l600 -600v0z" />
    <glyph glyph-name="asterisk" unicode="*" 
d="M685 1370c62.667 0 123.165 -8.16699 181.498 -24.5s113 -39.333 164 -69s97.333 -65.334 139 -107.001s77.334 -87.834 107.001 -138.501s52.667 -105.167 69 -163.5s24.5 -119.166 24.5 -182.499c0 -94.667 -18 -183.5 -54 -266.5s-85 -155.5 -147 -217.5
s-134.5 -111 -217.5 -147s-171.833 -54 -266.5 -54s-183.5 18 -266.5 54s-155.5 85 -217.5 147s-111 134.5 -147 217.5s-54 171.833 -54 266.5c0 63.333 8.16699 124.166 24.5 182.499s39.333 112.833 69 163.5s65.334 96.834 107.001 138.501s88 77.334 139 107.001
s105.5 52.667 163.5 69s118.667 24.5 182 24.5zM769.998 943h86l-171 171l-171 -171h85v-514h-85l171 -171l171 171h-86v514z" />
    <glyph glyph-name="plus" unicode="+" horiz-adv-x="1542" 
d="M1370 514h-514v-514h-342v514h-514v342h514v514h342v-514h514v-342z" />
    <glyph glyph-name="comma" unicode="," horiz-adv-x="1669" 
d="M1286 644c24 0 44.333 -8.33301 61 -25s25 -37 25 -61v-343c0 -23.333 -8.33301 -43.333 -25 -60s-37 -25 -61 -25h-257v514v172c0 47.333 -9 91.833 -27 133.5s-42.5 78 -73.5 109s-67.333 55.5 -109 73.5s-86.167 27 -133.5 27s-91.833 -9 -133.5 -27
s-78 -42.5 -109 -73.5s-55.5 -67.333 -73.5 -109s-27 -86.167 -27 -133.5v-172v-514h-257c-24 0 -44.333 8.33301 -61 25s-25 36.667 -25 60v343c-0 24 8.33301 44.333 25 61s37 25 61 25h85v172c0 70.667 13.5 137.334 40.5 200.001s63.833 117.167 110.5 163.5
s101.167 83 163.5 110s129.166 40.5 200.499 40.5c70.667 0 137.334 -13.5 200.001 -40.5s117.167 -63.667 163.5 -110s83 -100.833 110 -163.5s40.5 -129.334 40.5 -200.001v-172h86v0z" />
    <glyph glyph-name="hyphen" unicode="-" horiz-adv-x="1586" 
d="M0 560v343h1372v-343h-1372v0z" />
    <glyph glyph-name="period" unicode="." horiz-adv-x="1576" 
d="M1370 1199h-1370v171h1370v-171zM856 856h-856v171h856v-171zM1370 510h-1370v171h1370v-171zM171 85c0 -23.333 -8.33301 -43.333 -25 -60s-37 -25 -61 -25c-23.333 -0 -43.333 8.33301 -60 25s-25 36.667 -25 60c-0 24 8.33301 44.333 25 61s36.667 25 60 25
c24 0 44.333 -8.33301 61 -25s25 -37 25 -61zM514 85c0 -12 -2.33105 -23.167 -6.99805 -33.5s-10.834 -19.333 -18.501 -27s-16.834 -13.667 -27.501 -18s-22 -6.5 -34 -6.5c-11.333 0 -22.166 2.16699 -32.499 6.5s-19.333 10.333 -27 18s-13.834 16.667 -18.501 27
s-7 21.5 -7 33.5s2.33301 23.167 7 33.5s10.834 19.5 18.501 27.5s16.667 14.167 27 18.5s21.166 6.5 32.499 6.5c24 0 44.5 -8.33301 61.5 -25s25.5 -37 25.5 -61zM856.002 85c0 -23.333 -8.33301 -43.333 -25 -60s-37 -25 -61 -25c-23.333 -0 -43.333 8.33301 -60 25
s-25 36.667 -25 60c0 24 8.33301 44.333 25 61s36.667 25 60 25c24 0 44.333 -8.33301 61 -25s25 -37 25 -61z" />
    <glyph glyph-name="slash" unicode="/" horiz-adv-x="1556" 
d="M1344 1344c17.333 -16.667 25.999 -36.8291 25.999 -60.4961s-8.66699 -43.834 -26 -60.501l-174 -174c28 -42 47.667 -86.833 59 -134.5s14.666 -95.334 9.99902 -143.001s-17.334 -94 -38.001 -139s-49.334 -85.833 -86.001 -122.5l-256 -257
c-42 -42 -89.167 -73.5 -141.5 -94.5s-106.166 -31.5 -161.499 -31.5c-41.333 0 -81.833 6.16699 -121.5 18.5s-77.5 30.166 -113.5 53.499l-176 -174c-8 -8.66699 -17.167 -15 -27.5 -19s-21.166 -6 -32.499 -6s-22.166 2 -32.499 6s-19.5 10.333 -27.5 19
c-16.667 16.667 -25 36.667 -25 60s8.33301 43.333 25 60l174 176c-27.333 41.333 -46.833 85.666 -58.5 132.999s-15.167 94.833 -10.5 142.5s17.334 94.167 38.001 139.5s49.334 86.333 86.001 123l257 256c42 42 89 73.5 141 94.5s105.667 31.5 161 31.5
c41.333 0 82.166 -5.83301 122.499 -17.5s78.5 -29.5 114.5 -53.5l174 174c16.667 17.333 36.667 26 60 26s43.333 -8.66699 60 -26zM1070 812.005c0 39.333 -8.66895 76.3291 -26.002 110.996l-130 -130c-8 -9.33301 -17.167 -16 -27.5 -20s-21.166 -6 -32.499 -6
s-22.166 2 -32.499 6s-19.833 10.667 -28.5 20c-17.333 16.667 -26 36.834 -26 60.501s8.66699 43.834 26 60.501l131 130c-17.333 8 -35.333 14.333 -54 19s-37.667 7 -57 7c-34.667 0 -67.5 -6.5 -98.5 -19.5s-58.5 -31.5 -82.5 -55.5l-258 -257
c-24 -24.667 -42.5 -52.5 -55.5 -83.5s-19.5 -63.833 -19.5 -98.5c0 -39.333 8.66699 -75.666 26 -108.999l129 127c16.667 16.667 36.5 25 59.5 25s43.167 -8.33301 60.5 -25c16.667 -17.333 25 -37.666 25 -60.999s-8.33301 -43.333 -25 -60l-127 -128
c34.667 -17.333 71 -26 109 -26c34.667 0 67.5 6.5 98.5 19.5s59.167 31.5 84.5 55.5l256 258c24 24 42.5 51.5 55.5 82.5s19.5 63.5 19.5 97.5z" />
    <glyph glyph-name="zero" unicode="0" horiz-adv-x="1055" 
d="M429 1201c-35.333 0 -68.6729 -6.83301 -100.006 -20.5s-58.666 -32.167 -81.999 -55.5s-41.666 -50.666 -54.999 -81.999s-20 -64.666 -20 -99.999c0 -40.667 8.83301 -78.834 26.5 -114.501s42.834 -65.834 75.501 -90.501c48.667 -36.667 84 -74.334 106 -113.001
s36.333 -75 43 -109h12c3.33301 16.667 8.5 34.334 15.5 53.001s16.5 37.5 28.5 56.5s26.667 38 44 57s38 37.5 62 55.5c32.667 24.667 57.834 54.834 75.501 90.501s26.5 73.834 26.5 114.501c0 35.333 -6.83301 68.666 -20.5 99.999s-32.167 58.666 -55.5 81.999
s-50.666 41.833 -81.999 55.5s-64.666 20.5 -99.999 20.5zM428.993 1373c59.333 0 114.999 -11.333 166.999 -34s97.5 -53.5 136.5 -92.5s69.667 -84.5 92 -136.5s33.5 -107.667 33.5 -167c0 -70.667 -15.333 -135.5 -46 -194.5s-72 -108.167 -124 -147.5
c-24 -18 -44.5 -39 -61.5 -63s-25.5 -52 -25.5 -84v-110h-343v110c0 32 -8.5 60 -25.5 84s-37.5 45 -61.5 63c-52 39.333 -93.5 88.5 -124.5 147.5s-46.5 123.833 -46.5 194.5c0 59.333 11.333 115 34 167s53.334 97.5 92.001 136.5s84 69.833 136 92.5s107.667 34 167 34z
M257.992 172h343v-172h-343v172z" />
    <glyph glyph-name="one" unicode="1" horiz-adv-x="1586" 
d="M1373 343h-343v-343h-1030v1030h343v343h1030v-1030zM858 343h-515v343h-171v-514h686v171zM1201 1030h-686v-515h686v515z" />
    <glyph glyph-name="two" unicode="2" horiz-adv-x="1556" 
d="M685 856c24 0 46.333 -4.5 67 -13.5s38.667 -21.167 54 -36.5s27.5 -33.333 36.5 -54s13.5 -43 13.5 -67s-4.5 -46.333 -13.5 -67s-21.167 -38.667 -36.5 -54s-33.333 -27.5 -54 -36.5s-43 -13.5 -67 -13.5s-46.333 4.5 -67 13.5s-38.667 21.167 -54 36.5
s-27.5 33.333 -36.5 54s-13.5 43 -13.5 67s4.5 46.333 13.5 67s21.167 38.667 36.5 54s33.333 27.5 54 36.5s43 13.5 67 13.5zM1222 1104c46 -58 82.167 -122.332 108.5 -192.999s39.5 -146 39.5 -226c0 -94.667 -18 -183.5 -54 -266.5s-85 -155.5 -147 -217.5
s-134.5 -111 -217.5 -147s-171.833 -54 -266.5 -54s-183.5 18 -266.5 54s-155.5 85 -217.5 147s-111 134.5 -147 217.5s-54 171.833 -54 266.5c-0 79.333 12.833 154.166 38.5 224.499s60.834 134.833 105.501 193.5c7.33301 -5.33301 15.166 -9.83301 23.499 -13.5
s17.5 -5.5 27.5 -5.5c12 0 23.167 2.16699 33.5 6.5s19.333 10.5 27 18.5s13.834 17.167 18.501 27.5s7 21.5 7 33.5c0 9.33301 -1.83301 18.333 -5.5 27s-8.16699 16.667 -13.5 24c48 38 100.5 69.167 157.5 93.5s117.167 40.5 180.5 48.5c2 -22 11 -40.5 27 -55.5
s35.333 -22.5 58 -22.5c22 0 40.833 7.5 56.5 22.5s24.834 33.167 27.501 54.5c63.333 -7.33301 123.166 -23 179.499 -47s108.166 -54.667 155.499 -92c-6 -6.66699 -10.833 -14.5 -14.5 -23.5s-5.5 -18.833 -5.5 -29.5c0 -24 8.33301 -44.333 25 -61s36.667 -25 60 -25
c10 0 19.5 1.83301 28.5 5.5s17.167 8.5 24.5 14.5zM685 342.001c47.333 0 91.667 9 133 27s77.5 42.5 108.5 73.5s55.5 67.333 73.5 109s27 86.167 27 133.5c0 48 -8.83301 92.667 -26.5 134s-42.5 77.333 -74.5 108l-241 243l-242 -243
c-31.333 -30.667 -56 -66.667 -74 -108s-27 -86 -27 -134c0 -47.333 9 -91.833 27 -133.5s42.5 -78 73.5 -109s67.333 -55.5 109 -73.5s86.167 -27 133.5 -27z" />
    <glyph glyph-name="three" unicode="3" horiz-adv-x="1537" 
d="M685 1370l685 -685l-242 -242l-272 271v-714h-342v714l-100 -99.5l-87 -86.5l-85 -85l-242 242z" />
    <glyph glyph-name="four" unicode="4" horiz-adv-x="1537" 
d="M1372 686l-685 -686l-243 243l270 271h-714v344h714l-99 99.5l-86 86.5l-85 85l243 243z" />
    <glyph glyph-name="five" unicode="5" horiz-adv-x="1537" 
d="M686 0l-686 686l243 243l271 -271v714h344v-714l186 186l85 85l243 -243z" />
    <glyph glyph-name="six" unicode="6" horiz-adv-x="1561" 
d="M0 685l684 685l242 -242l-270 -272h714v-344h-714l185 -185l85 -85l-242 -242z" />
    <glyph glyph-name="seven" unicode="7" horiz-adv-x="1546" 
d="M514 601h-258v-171l-256 256l256 258v-172h258v-171zM856 772h256v172l258 -258l-258 -256v171h-256v171z" />
    <glyph glyph-name="eight" unicode="8" horiz-adv-x="702" 
d="M343 514v-257h171l-257 -257l-257 257h171v257h172v0zM171 857v258h-171l257 257l257 -257h-171v-258h-172v0z" />
    <glyph glyph-name="nine" unicode="9" horiz-adv-x="1522" 
d="M772 514v-257h172l-258 -257l-257 257h172v257h171v0zM601 857v258h-172l257 257l258 -257h-172v-258h-171v0zM515 600h-258v-171l-257 257l257 257v-171h258v-172v0zM858 772h257v171l257 -257l-257 -257v171h-257v172v0z" />
    <glyph glyph-name="colon" unicode=":" horiz-adv-x="1669" 
d="M1370 514v-514h-514l196 196l-196 197l121 121l197 -196zM318 1174l193 -194l-121 -122l-194 194l-196 -196v514h514zM318 196l196 -196h-514v514l196 -196l197 196l121 -121zM1370 856l-196 196l-194 -194l-122 122l194 194l-196 196h514v-514z" />
    <glyph glyph-name="semicolon" unicode=";" horiz-adv-x="1566" 
d="M856 0v514h514l-196 -196l196 -196l-121 -122l-195 197zM197 1054l-194 194l120 121l195 -195l196 196v-514h-514zM197 318l-197 196h514v-514l-196 197l-196 -197l-122 122zM856 1370l198 -196l194 195l121 -121l-195 -194l196 -198h-514v514z" />
    <glyph glyph-name="less" unicode="&#x3c;" horiz-adv-x="1586" 
d="M858 343h-86v-257c0 -24 -8.33301 -44.333 -25 -61s-36.667 -25 -60 -25c-24 -0 -44.333 8.33301 -61 25s-25 37 -25 61v257h-86v171h86v772c0 24 8.33301 44.333 25 61s37 25 61 25c23.333 0 43.333 -8.33301 60 -25s25 -37 25 -61v-772h86v-171zM1373 857h-86v-771
c0 -24 -8.33301 -44.333 -25 -61s-37 -25 -61 -25c-12 0 -23.167 2.16699 -33.5 6.5s-19.333 10.5 -27 18.5s-13.834 17.167 -18.501 27.5s-7 21.5 -7 33.5v771h-85v172h85v257c0 12 2.33301 23.167 7 33.5s10.834 19.5 18.501 27.5s16.667 14.167 27 18.5
s21.5 6.5 33.5 6.5c24 0 44.333 -8.33301 61 -25s25 -37 25 -61v-257h86v-172zM343 686h-85v-600c0 -24 -8.33301 -44.333 -25 -61s-37 -25 -61 -25c-12 0 -23.167 2.16699 -33.5 6.5s-19.333 10.5 -27 18.5s-13.834 17.167 -18.501 27.5s-7 21.5 -7 33.5v600h-86v171h86
v429c0 12 2.33301 23.167 7 33.5s10.834 19.5 18.501 27.5s16.667 14.167 27 18.5s21.5 6.5 33.5 6.5c24 0 44.333 -8.33301 61 -25s25 -37 25 -61v-429h85v-171z" />
    <glyph glyph-name="equal" unicode="=" 
d="M686 1372c94.667 0 183.667 -18 267 -54s156 -85 218 -147s111 -134.667 147 -218s54 -172.333 54 -267s-18 -183.667 -54 -267s-85 -156 -147 -218s-134.667 -111 -218 -147s-172.333 -54 -267 -54s-183.667 18 -267 54s-156 85 -218 147s-111 134.667 -147 218
s-54 172.333 -54 267s18 183.667 54 267s85 156 147 218s134.667 111 218 147s172.333 54 267 54zM1029 772h-257v257h-172v-257h-257v-172h257v-257h172v257h257v172z" />
    <glyph glyph-name="greater" unicode="&#x3e;" horiz-adv-x="1581" 
d="M1370 1199h-1370v171h1370v-171zM856 856h-856v171h856v-171zM1370 342h-1370v172h1370v-172zM1027 0h-1027v171h1027v-171zM1370 86c0 -24 -8.33301 -44.333 -25 -61s-36.667 -25 -60 -25c-24 -0 -44.333 8.33301 -61 25s-25 37 -25 61c0 23.333 8.33301 43.333 25 60
s37 25 61 25c23.333 0 43.333 -8.33301 60 -25s25 -36.667 25 -60z" />
    <glyph glyph-name="question" unicode="?" horiz-adv-x="1576" 
d="M342 342v343l172 171l171 -171l342 342l343 -342v-343h-1028zM1370 171l-171 -171h-1028h-171v171v1028l171 171v-1199h1199z" />
    <glyph glyph-name="at" unicode="@" horiz-adv-x="1546" 
d="M1029 343c-28 0 -53.4961 6.50293 -76.4961 19.5029s-42.5 30.167 -58.5 51.5c-29.333 -22.667 -61.333 -40.334 -96 -53.001s-72 -19 -112 -19c-47.333 0 -91.833 9 -133.5 27s-78 42.5 -109 73.5s-55.5 67.333 -73.5 109s-27 86.167 -27 133.5s9 91.833 27 133.5
s42.5 78 73.5 109s67.333 55.5 109 73.5s86.167 27 133.5 27h343v-513h139l1 -2c10 27.333 17.833 55.333 23.5 84s8.5 58.334 8.5 89.001c0 70.667 -13.5 137.334 -40.5 200.001s-63.833 117.334 -110.5 164.001s-101.334 83.5 -164.001 110.5s-129.334 40.5 -200.001 40.5
c-71.333 0 -138.166 -13.5 -200.499 -40.5s-116.833 -63.833 -163.5 -110.5s-83.5 -101.334 -110.5 -164.001s-40.5 -129.334 -40.5 -200.001s13.5 -137.167 40.5 -199.5s63.833 -116.833 110.5 -163.5s101.167 -83.5 163.5 -110.5s129.166 -40.5 200.499 -40.5
s138.166 13.5 200.499 40.5s116.833 63.833 163.5 110.5l121 -122c-62.667 -62.667 -135.334 -111.834 -218.001 -147.501s-171.667 -53.5 -267 -53.5c-63.333 0 -124.166 8.16699 -182.499 24.5s-113 39.5 -164 69.5s-97.333 65.833 -139 107.5
s-77.334 87.834 -107.001 138.501s-52.667 105.167 -69 163.5s-24.5 119.166 -24.5 182.499c0 94.667 18 183.667 54 267s85 156.166 147 218.499s134.667 111.5 218 147.5s172.333 54 267 54s183.667 -18 267 -54s156 -85.167 218 -147.5s111 -135.166 147 -218.499
s54 -172.333 54 -267c0 -62.667 -8 -122.834 -24 -180.501s-38.667 -111.834 -68 -162.501h-251zM857.004 856.003l-171.001 0.000976562c-23.333 0 -45.5 -4.5 -66.5 -13.5s-39.333 -21.333 -55 -37s-28 -33.834 -37 -54.501s-13.5 -42.667 -13.5 -66
c0 -24 4.5 -46.333 13.5 -67s21.333 -38.834 37 -54.501s34 -28 55 -37s43.167 -13.5 66.5 -13.5s45.333 4.5 66 13.5s38.834 21.333 54.501 37s28 33.834 37 54.501s13.5 43 13.5 67v87v84z" />
    <glyph glyph-name="A" unicode="A" horiz-adv-x="1591" 
d="M1026 1201h347v-172h-347h-172h-343h-171h-340v172h340v171h171v-171h343v171h172v-171zM1201 343h-1029v171h1029v-171v0zM1201 686h-1029v172h1029v-172v0zM1030 0h-858v171h1029l-171 -171v0z" />
    <glyph glyph-name="B" unicode="B" horiz-adv-x="1707" 
 />
    <glyph glyph-name="E" unicode="E" horiz-adv-x="1502" 
d="M515 1029h342v-172h-342v172zM1371 856l-171 -0.000976562v-856h-1028c-24 0 -46.333 4.5 -67 13.5s-38.834 21.333 -54.501 37s-28 33.834 -37 54.501s-13.5 43 -13.5 67v1029c0 24 4.5 46.333 13.5 67s21.333 38.667 37 54s33.834 27.5 54.501 36.5s43 13.5 67 13.5
h1028v-172h173l-173 -173zM1029 1201h-686v-1029h686v1029z" />
    <glyph glyph-name="H" unicode="H" horiz-adv-x="1707" 
 />
    <glyph glyph-name="J" unicode="J" horiz-adv-x="1605" 
d="M1111 847c34.667 -6.66699 67.832 -17.832 99.499 -33.499s59.167 -37 82.5 -64s42 -60 56 -99s21 -84.5 21 -136.5c0 -62 -9.83301 -114.667 -29.5 -158s-45.5 -78.666 -77.5 -105.999s-68.667 -47.333 -110 -60s-83.333 -19 -126 -19h-171
c-23.333 0 -45.5 -4.5 -66.5 -13.5s-39.167 -21.167 -54.5 -36.5s-27.5 -33.333 -36.5 -54s-13.5 -43 -13.5 -67c-47.333 0 -91.833 9 -133.5 27s-78 42.5 -109 73.5s-55.5 67.167 -73.5 108.5s-27 85.666 -27 132.999v172c0 30.667 3 59 9 85h163
c2.66699 0 5 -0.333008 7 -1s4.66699 -1.33398 8 -2.00098c-10 -22 -15 -49.333 -15 -82v-172c0 -28 6.16699 -53.833 18.5 -77.5s28.833 -43.167 49.5 -58.5c31.333 42 70.666 75.167 117.999 99.5s99.333 36.5 156 36.5h171c28.667 0 52.834 3.33301 72.501 10
s35.834 15.167 48.501 25.5s22.5 21.833 29.5 34.5s12 25.334 15 38.001s4.83301 24.667 5.5 36s1 20.666 1 27.999c0 11.333 -0.666992 25.333 -2 42s-6 33.5 -14 50.5s-20.5 32.333 -37.5 46s-40.833 23.167 -71.5 28.5c11.333 25.333 20.333 51.833 27 79.5
s10 56.5 10 86.5zM341.998 1199c-42.667 0 -75.667 -6.49902 -99 -19.499s-40.333 -28.667 -51 -47s-16.834 -37.333 -18.501 -57s-2.5 -35.834 -2.5 -48.501c0 -10.667 0.833008 -25.5 2.5 -44.5s7.83398 -37.833 18.501 -56.5s27.667 -35 51 -49s56.333 -21 99 -21h172
c56 0 107.667 -12.333 155 -37s87 -58 119 -100c20.667 16 37.167 35.833 49.5 59.5s18.5 49.5 18.5 77.5v171c0 37.333 -6 67.333 -18 90s-26.667 40 -44 52s-35.833 20 -55.5 24s-37.5 6 -53.5 6h-343zM684.998 1370c42.667 0 84.5 -6.83301 125.5 -20.5
s77.5 -34.5 109.5 -62.5s57.833 -63.667 77.5 -107s29.5 -94.333 29.5 -153v-171c0 -47.333 -9 -91.666 -27 -132.999s-42.5 -77.5 -73.5 -108.5s-67.167 -55.5 -108.5 -73.5s-85.666 -27 -132.999 -27c0 23.333 -4.5 45.333 -13.5 66s-21.333 38.834 -37 54.501
s-33.834 28 -54.501 37s-42.667 13.5 -66 13.5h-172c-42.667 0 -84.5 6.33301 -125.5 19s-77.5 32.667 -109.5 60s-57.833 62.666 -77.5 105.999s-29.5 95.666 -29.5 156.999c0 63.333 9.83301 116.833 29.5 160.5s45.5 79 77.5 106s68.5 46.5 109.5 58.5
s82.833 18 125.5 18h343z" />
    <glyph glyph-name="L" unicode="L" horiz-adv-x="1325" 
d="M600 1370c58.667 0 113.996 -11.167 165.996 -33.5s97.333 -53 136 -92s69.167 -84.5 91.5 -136.5s33.5 -107.667 33.5 -167v-685c0 -35.333 -6.66699 -68.5 -20 -99.5s-31.666 -58.167 -54.999 -81.5s-50.5 -41.666 -81.5 -54.999s-64.167 -20 -99.5 -20h-513
c-36 0 -69.667 6.66699 -101 20s-58.666 31.666 -81.999 54.999s-41.666 50.5 -54.999 81.5s-20 64.167 -20 99.5v600h171v85c0 59.333 11.333 115 34 167s53.334 97.5 92.001 136.5s84 69.667 136 92s107.667 33.5 167 33.5zM341.996 856h513.997v85
c0 36 -6.66699 69.667 -20 101s-31.666 58.666 -54.999 81.999s-50.5 41.666 -81.5 54.999s-64.167 20 -99.5 20s-68.666 -6.66699 -99.999 -20s-58.666 -31.666 -81.999 -54.999s-41.833 -50.666 -55.5 -81.999s-20.5 -65 -20.5 -101v-85zM770.993 171
c12 0 23.165 2.33301 33.498 7s19.333 10.834 27 18.501s13.667 16.667 18 27s6.5 21.166 6.5 32.499v429h-685v-429c0 -11.333 2.33301 -22.166 7 -32.499s10.834 -19.333 18.501 -27s16.834 -13.834 27.501 -18.501s22 -7 34 -7h513zM599.991 427
c0 -11.333 -2.16699 -22.168 -6.5 -32.501s-10.5 -19.333 -18.5 -27s-17.167 -13.834 -27.5 -18.501s-21.5 -7 -33.5 -7s-23.167 2.33301 -33.5 7s-19.333 10.834 -27 18.501s-13.667 16.667 -18 27s-6.5 21.166 -6.5 32.499c0 12 2.16699 23.333 6.5 34
s10.333 19.834 18 27.501s16.667 13.834 27 18.501s21.5 7 33.5 7c24 0 44.333 -8.5 61 -25.5s25 -37.5 25 -61.5z" />
    <glyph glyph-name="M" unicode="M" horiz-adv-x="1669" 
d="M1372 1209v-1029h-1372v1029h1372zM306 1037l319.002 -319c17.333 -16.667 37.666 -25 60.999 -25s43.666 8.33301 60.999 25l319 319h-760zM1200 351l-0.00390625 578l-332 -332c-25.333 -25.333 -53.666 -44.333 -84.999 -57s-63.666 -19 -96.999 -19
s-65.666 6.33301 -96.999 19s-59.666 31.667 -84.999 57l-333 332v-578h1029z" />
    <glyph glyph-name="P" unicode="P" horiz-adv-x="1586" 
d="M1272 1271c33.333 -33.333 58.333 -71.168 75 -113.501s25 -85.333 25 -129s-8.33301 -86.667 -25 -129s-41.667 -80.166 -75 -113.499l-786 -786h-486l1 486l786 785c34 34 72 59.333 114 76s85 25 129 25s86.833 -8.33301 128.5 -25s79.5 -42 113.5 -76zM1151 906.998
l-243 243l-735 -735v-72h170v-172h72z" />
    <glyph glyph-name="Q" unicode="Q" horiz-adv-x="1596" 
d="M687 1037c-267.333 0 -430 -70.333 -488 -211c-12.667 -30 -20.834 -61.333 -24.501 -94s-4.16699 -65.5 -1.5 -98.5s7.83398 -65.333 15.501 -97s16.5 -61.5 26.5 -89.5c24 16.667 48.167 30 72.5 40s51.333 17.667 81 23s63.167 8.83301 100.5 10.5s81.333 2.5 132 2.5
h568c8.66699 25.333 16.167 53 22.5 83s9.5 59.333 9.5 88c0 28 -1.66699 55.833 -5 83.5s-11 54.167 -23 79.5s-29.167 49 -51.5 71s-52.5 41 -90.5 57s-85.167 28.667 -141.5 38s-123.833 14 -202.5 14zM687 1209c57.333 0 113.998 -2.83496 169.998 -8.50195
s109.5 -15.667 160.5 -30s98.167 -33.833 141.5 -58.5s80.833 -56 112.5 -94s56.5 -83.667 74.5 -137s27 -115.666 27 -186.999c0 -43.333 -4.66699 -85.5 -14 -126.5s-19.666 -77.5 -30.999 -109.5c-12.667 -37.333 -27.334 -73 -44.001 -107h-683
c-42.667 0 -79 -0.333008 -109 -1s-56.167 -2.5 -78.5 -5.5s-42 -8 -59 -15s-34.333 -16.833 -52 -29.5s-36.667 -28.667 -57 -48l-73.5 -72c-21.333 21.333 -43.5 52.5 -66.5 93.5s-43.167 87.5 -60.5 139.5s-30.166 107.833 -38.499 167.5s-8.66602 119 -0.999023 178
s25 115.667 52 170s67 102.333 120 144s121.167 74.834 204.5 99.501s185 37 305 37z" />
    <glyph glyph-name="V" unicode="V" horiz-adv-x="1581" 
d="M342 351c-47.333 0 -91.666 9.00098 -132.999 27.001s-77.5 42.5 -108.5 73.5s-55.5 67.333 -73.5 109s-27 86.167 -27 133.5s9 91.666 27 132.999s42.5 77.5 73.5 108.5s67.167 55.5 108.5 73.5s85.666 27 132.999 27v-685zM514 1036l342 171v-1027l-342 171v685z
M1370 607.001h-343v172h343v-172z" />
    <glyph glyph-name="W" unicode="W" horiz-adv-x="1571" 
d="M1167 514c-2.66699 -8.66699 -5.66699 -17 -9 -25l-10 -25l143 -142l-243 -243l-142 143c-8.66699 -3.33301 -17 -6.16602 -25 -8.49902l-25 -7.5v-206h-342v206l-25 7.5c-8 2.33301 -16.333 5.16602 -25 8.49902l-142 -143l-243 243l144 142
c-4 8.66699 -7.66699 17 -11 25s-6.33301 16.333 -9 25h-203v342h203c2.66699 8.66699 5.66699 17 9 25s7 16.333 11 25l-144 142l243 243l142 -144c8.66699 4 17 7.16699 25 9.5l25 7.5v206h342v-206l25 -7.5c8 -2.33301 16.333 -5.5 25 -9.5l142 144l243 -243l-143 -142
l10 -25c3.33301 -8 6.33301 -16.333 9 -25h203v-342h-203zM685 510c24 0 46.333 4.5 67 13.5s38.667 21.167 54 36.5s27.5 33.333 36.5 54s13.5 43 13.5 67c0 23.333 -4.5 45.333 -13.5 66s-21.167 38.834 -36.5 54.501s-33.333 28 -54 37s-43 13.5 -67 13.5
s-46.333 -4.5 -67 -13.5s-38.667 -21.333 -54 -37s-27.5 -33.834 -36.5 -54.501s-13.5 -42.667 -13.5 -66c0 -24 4.5 -46.333 13.5 -67s21.167 -38.667 36.5 -54s33.333 -27.5 54 -36.5s43 -13.5 67 -13.5z" />
    <glyph glyph-name="X" unicode="X" 
d="M686 1372c94.667 0 183.667 -18 267 -54s156 -85 218 -147s111 -134.667 147 -218s54 -172.333 54 -267s-18 -183.667 -54 -267s-85 -156 -147 -218s-134.667 -111 -218 -147s-172.333 -54 -267 -54s-183.667 18 -267 54s-156 85 -218 147s-111 134.667 -147 218
s-54 172.333 -54 267s18 183.667 54 267s85 156 147 218s134.667 111 218 147s172.333 54 267 54zM807 686l218 218l-121 121l-218 -218l-218 218l-121 -121l218 -218l-218 -218l121 -122l218 219l218 -219l121 122z" />
    <glyph glyph-name="Y" unicode="Y" 
d="M686 1373c94.667 0 183.667 -18 267 -54s156 -85.167 218 -147.5s111 -135.166 147 -218.499s54 -172.333 54 -267c0 -63.333 -8.16699 -124.166 -24.5 -182.499s-39.333 -112.833 -69 -163.5s-65.334 -96.834 -107.001 -138.501s-88 -77.5 -139 -107.5
s-105.667 -53.167 -164 -69.5s-119.166 -24.5 -182.499 -24.5s-124.166 8.16699 -182.499 24.5s-113 39.5 -164 69.5s-97.333 65.833 -139 107.5s-77.334 87.834 -107.001 138.501s-52.667 105.167 -69 163.5s-24.5 119.166 -24.5 182.499c0 94.667 18 183.667 54 267
s85 156.166 147 218.499s134.667 111.5 218 147.5s172.333 54 267 54zM1113 904l-121 121l-412 -413l-195 195l-121 -121l316 -316z" />
    <glyph glyph-name="Z" unicode="Z" horiz-adv-x="972" 
d="M426 985c0 -11.333 -4 -21.166 -12 -29.499s-17.667 -12.5 -29 -12.5s-21 4.16699 -29 12.5s-12 18.166 -12 29.499s4 21 12 29s17.667 12 29 12s21 -4 29 -12s12 -17.667 12 -29zM599 1370c24 0 44.332 -8.33301 60.999 -25s25 -37 25 -61v-942
c0 -47.333 -9 -91.666 -27 -132.999s-42.5 -77.5 -73.5 -108.5s-67.333 -55.5 -109 -73.5s-86.167 -27 -133.5 -27s-91.666 9 -132.999 27s-77.5 42.5 -108.5 73.5s-55.5 67.167 -73.5 108.5s-27 85.666 -27 132.999v942c-0 24 8.33301 44.333 25 61s36.667 25 60 25h514z
M214.999 514c11.333 0 21 4 29 12s12 17.667 12 29s-4 21 -12 29s-17.667 12 -29 12s-21 -4 -29 -12s-12 -17.667 -12 -29s4 -21 12 -29s17.667 -12 29 -12zM426.999 342c12 0 23.3311 2.33496 33.998 7.00195s19.834 10.834 27.501 18.501s13.834 16.667 18.501 27
s7 21.166 7 32.499c0 24 -8.5 44.5 -25.5 61.5s-37.5 25.5 -61.5 25.5c-11.333 0 -22.166 -2.33301 -32.499 -7s-19.333 -10.834 -27 -18.501s-13.834 -16.834 -18.501 -27.501s-7 -22 -7 -34c0 -23.333 8.33301 -43.333 25 -60s36.667 -25 60 -25zM513.997 1199h-343v-514
h87c0 23.333 8.33301 43.333 25 60s37 25 61 25s44.333 -8.33301 61 -25s25 -36.667 25 -60h84v514z" />
    <glyph glyph-name="bracketleft" unicode="[" horiz-adv-x="1360" 
d="M1023 1110c57.333 -57.333 101 -122.334 131 -195.001s45 -149.334 45 -230.001c0 -55.333 -7.16699 -108.5 -21.5 -159.5s-34.5 -98.667 -60.5 -143s-57.167 -84.833 -93.5 -121.5s-76.833 -68 -121.5 -94s-92.5 -46.167 -143.5 -60.5s-103.833 -21.5 -158.5 -21.5v-85
l-171 171l171 171v-86c58.667 0 114 11.333 166 34s97.333 53.334 136 92.001s69.167 84 91.5 136s33.5 107.667 33.5 167c0 58 -10.5 112.833 -31.5 164.5s-51.833 97.834 -92.5 138.501zM600 1027l-0.000976562 85c-59.333 0 -115 -11.167 -167 -33.5
s-97.333 -52.833 -136 -91.5s-69.334 -84 -92.001 -136s-34 -107.333 -34 -166c0 -58 10.833 -112.833 32.5 -164.5s52.834 -97.834 93.501 -138.501l-120 -122c-57.333 57.333 -101.166 122.333 -131.499 195s-45.5 149.334 -45.5 230.001
c0 54.667 7.16699 107.5 21.5 158.5s34.5 98.833 60.5 143.5s57.333 85.167 94 121.5s77.167 67.5 121.5 93.5s92 46.167 143 60.5s104.167 21.5 159.5 21.5v86l171 -171z" />
    <glyph glyph-name="backslash" unicode="\" horiz-adv-x="1055" 
d="M429 1200c-34.667 0 -67.667 -6.33203 -99 -18.999s-59 -31.334 -83 -56.001c-24.667 -24.667 -43.5 -52.5 -56.5 -83.5s-19.5 -63.833 -19.5 -98.5c0 -34 6.5 -66.667 19.5 -98s31.833 -59 56.5 -83l19.5 -20c11 -11.333 24.833 -27 41.5 -47s35.5 -44 56.5 -72
s42.5 -59.333 64.5 -94c22 34.667 43.5 66 64.5 94s40 52 57 72s31 35.833 42 47.5l19.5 20.5c23.333 23.333 41.5 50.666 54.5 81.999s19.5 64 19.5 98c0 34.667 -6.5 67.5 -19.5 98.5s-31.5 58.833 -55.5 83.5c-24.667 24.667 -52.667 43.334 -84 56.001s-64 19 -98 19z
M429 1372c54.667 0 108.334 -10.5 161.001 -31.5s100 -52.5 142 -94.5s73.333 -89.333 94 -142s31 -106.334 31 -161.001s-10.333 -108.334 -31 -161.001s-52 -100 -94 -142c-56.667 -58.667 -107.334 -122.334 -152.001 -191.001c-19.333 -29.333 -38 -61.166 -56 -95.499
s-34 -70.5 -48 -108.5s-25.333 -77.667 -34 -119s-13 -83.333 -13 -126c0 42.667 -4.33301 84.667 -13 126s-20.167 81 -34.5 119s-30.666 74.167 -48.999 108.5s-36.833 66.166 -55.5 95.499c-44.667 68.667 -95 132.334 -151 191.001c-42 42 -73.5 89.333 -94.5 142
s-31.5 106.334 -31.5 161.001s10.5 108.334 31.5 161.001s52.5 100 94.5 142s89.167 73.5 141.5 94.5s106.166 31.5 161.499 31.5zM514 943.001c0 -12 -2.16699 -23.167 -6.5 -33.5s-10.333 -19.333 -18 -27s-16.667 -13.834 -27 -18.501s-21.5 -7 -33.5 -7
s-23.167 2.33301 -33.5 7s-19.5 10.834 -27.5 18.501s-14.167 16.667 -18.5 27s-6.5 21.5 -6.5 33.5c0 24 8.33301 44.333 25 61s37 25 61 25c23.333 0 43.333 -8.33301 60 -25s25 -37 25 -61z" />
    <glyph glyph-name="bracketright" unicode="]" horiz-adv-x="1571" 
d="M253 980c-26 -41.333 -46 -85.499 -60 -132.499s-21 -95.5 -21 -145.5c0 -73.333 13.833 -142.166 41.5 -206.499s65.5 -120.5 113.5 -168.5s104 -85.833 168 -113.5s132.667 -41.5 206 -41.5c50.667 0 99.5 7.16699 146.5 21.5s91.167 34.166 132.5 59.499
c-96 9.33301 -186.167 34.5 -270.5 75.5s-158.833 93.667 -223.5 158s-117.5 138.666 -158.5 222.999s-65.833 174.5 -74.5 270.5zM508 1373c-27.333 -47.333 -48.667 -97.335 -64 -150.002s-23 -108 -23 -166c0 -88 16.667 -170.5 50 -247.5s78.666 -144.333 135.999 -202
s124.5 -103.167 201.5 -136.5s159.5 -50 247.5 -50c58.667 0 114.334 7.66699 167.001 23s102.334 36.666 149.001 63.999c-21.333 -73.333 -53.166 -141 -95.499 -203s-92.833 -115.5 -151.5 -160.5s-124 -80.333 -196 -106s-148 -38.5 -228 -38.5
c-64.667 0 -126.834 8.33301 -186.501 25s-115.5 40.167 -167.5 70.5s-99.333 67 -142 110s-79.167 90.5 -109.5 142.5s-53.833 107.833 -70.5 167.5s-25 121.834 -25 186.501c0 80 12.667 155.833 38 227.5s60.666 136.834 105.999 195.501s99 109.334 161 152.001
s129.667 74.667 203 96z" />
    <glyph glyph-name="asciicircum" unicode="^" 
d="M686 0c-63.333 0 -124.166 8.16699 -182.499 24.5s-113 39.5 -164 69.5s-97.333 65.833 -139 107.5s-77.334 87.834 -107.001 138.501s-52.667 105.167 -69 163.5s-24.5 119.166 -24.5 182.499c0 94.667 18 183.667 54 267s85 156.166 147 218.499
s134.667 111.5 218 147.5s172.333 54 267 54s183.667 -18 267 -54s156 -85.167 218 -147.5s111 -135.166 147 -218.499s54 -172.333 54 -267c0 -63.333 -8.16699 -124.166 -24.5 -182.499s-39.333 -112.833 -69 -163.5s-65.334 -96.834 -107.001 -138.501
s-88 -77.5 -139 -107.5s-105.667 -53.167 -164 -69.5s-119.166 -24.5 -182.499 -24.5zM343 686l342 -341v256h344v171h-344v258z" />
    <glyph glyph-name="underscore" unicode="_" 
d="M685 1370c94.667 0 183.5 -18 266.5 -54s155.5 -85 217.5 -147s111 -134.5 147 -217.5s54 -171.833 54 -266.5s-18 -183.5 -54 -266.5s-85 -155.5 -147 -217.5s-134.5 -111 -217.5 -147s-171.833 -54 -266.5 -54s-183.5 18 -266.5 54s-155.5 85 -217.5 147
s-111 134.5 -147 217.5s-54 171.833 -54 266.5s18 183.5 54 266.5s85 155.5 147 217.5s134.5 111 217.5 147s171.833 54 266.5 54zM1027 770h-685v-171h685v171z" />
    <glyph glyph-name="grave" unicode="`" 
d="M687 1372c63.333 0 124.169 -8.16699 182.502 -24.5s112.833 -39.333 163.5 -69s96.834 -65.334 138.501 -107.001s77.5 -88 107.5 -139s53.167 -105.667 69.5 -164s24.5 -119.166 24.5 -182.499s-8.16699 -124.166 -24.5 -182.499s-39.5 -113 -69.5 -164
s-65.833 -97.333 -107.5 -139s-87.834 -77.334 -138.501 -107.001s-105.334 -52.667 -164.001 -69s-119.334 -24.5 -182.001 -24.5c-94.667 0 -183.667 18 -267 54s-156.166 85 -218.499 147s-111.5 134.667 -147.5 218s-54 172.333 -54 267s18 183.667 54 267
s85.167 156 147.5 218s135.166 111 218.499 147s172.333 54 267 54zM687.003 1200c-71.333 0 -138.167 -13.5 -200.5 -40.5s-116.833 -63.833 -163.5 -110.5s-83.5 -101.167 -110.5 -163.5s-40.5 -128.833 -40.5 -199.5c0 -56 8.5 -109 25.5 -159s40.5 -96.333 70.5 -139
l716 716c-42 30 -88 53.5 -138 70.5s-103 25.5 -159 25.5zM687.002 171c70.667 0 137.167 13.502 199.5 40.502s116.833 63.833 163.5 110.5s83.5 101.167 110.5 163.5s40.5 129.166 40.5 200.499c0 55.333 -8.5 108.166 -25.5 158.499s-40.5 96.5 -70.5 138.5l-716 -716
c42 -30 88.167 -53.5 138.5 -70.5s103.5 -25.5 159.5 -25.5z" />
    <glyph glyph-name="a" unicode="a" horiz-adv-x="1674" 
d="M1373 0h-1373v1201h172v-1029h1029v1029h172v-1201zM429 686h-171v172h171v-172zM772 686h-171v172h171v-172zM1115 686h-171v172h171v-172zM429 343h-171v172h171v-172zM772 343h-171v172h171v-172zM944 343v172h171zM343 1115v172c0 12 2.33301 23.167 7 33.5
s10.834 19.333 18.501 27s16.667 13.667 27 18s21.5 6.5 33.5 6.5c24 0 44.333 -8.33301 61 -25s25 -36.667 25 -60v-172c0 -12 -2.16699 -23.167 -6.5 -33.5s-10.5 -19.333 -18.5 -27s-17.167 -13.834 -27.5 -18.501s-21.5 -7 -33.5 -7s-23.167 2.33301 -33.5 7
s-19.333 10.834 -27 18.501s-13.834 16.667 -18.501 27s-7 21.5 -7 33.5zM858 1115v172c0 23.333 8.33301 43.333 25 60s37 25 61 25c12 0 23.167 -2.16699 33.5 -6.5s19.333 -10.333 27 -18s13.834 -16.667 18.501 -27s7 -21.5 7 -33.5v-172
c0 -12 -2.33301 -23.167 -7 -33.5s-10.834 -19.333 -18.501 -27s-16.667 -13.834 -27 -18.501s-21.5 -7 -33.5 -7s-23.167 2.33301 -33.5 7s-19.5 10.834 -27.5 18.501s-14.167 16.667 -18.5 27s-6.5 21.5 -6.5 33.5z" />
    <glyph glyph-name="b" unicode="b" horiz-adv-x="1561" 
d="M770 685l257 -171l-1027 -514l599 514l-257 171l1028 685z" />
    <glyph glyph-name="c" unicode="c" 
d="M685 1199c-71.333 0 -138.166 -13.5 -200.499 -40.5s-116.666 -63.667 -162.999 -110s-83 -100.833 -110 -163.5s-40.5 -129.334 -40.5 -200.001c0 -71.333 13.5 -138.166 40.5 -200.499s63.667 -116.666 110 -162.999s100.666 -83 162.999 -110
s129.166 -40.5 200.499 -40.5c70.667 0 137.334 13.5 200.001 40.5s117.167 63.667 163.5 110s83 100.666 110 162.999s40.5 129.166 40.5 200.499c0 70.667 -13.5 137.334 -40.5 200.001s-63.667 117.167 -110 163.5s-100.833 83 -163.5 110s-129.334 40.5 -200.001 40.5z
M685 1370c94.667 0 183.5 -18 266.5 -54s155.5 -85 217.5 -147s111 -134.5 147 -217.5s54 -171.833 54 -266.5s-18 -183.5 -54 -266.5s-85 -155.5 -147 -217.5s-134.5 -111 -217.5 -147s-171.833 -54 -266.5 -54s-183.5 18 -266.5 54s-155.5 85 -217.5 147
s-111 134.5 -147 217.5s-54 171.833 -54 266.5s18 183.5 54 266.5s85 155.5 147 217.5s134.5 111 217.5 147s171.833 54 266.5 54zM796 453l-167.001 168c-9.33301 8 -16.666 17.333 -21.999 28s-8 22.667 -8 36v342h172v-306l147 -147z" />
    <glyph glyph-name="d" unicode="d" horiz-adv-x="1674" 
d="M1373 943v-943l-340 284l-343 -284l-344 284l-346 -282v1370h945zM1202 689h-515.002v514h-515v-858l175 138l343 -283l338 280c0.666992 0.666992 1.33398 1.16699 2.00098 1.5s1.33398 0.833008 2.00098 1.5l1 1l169 -139v344zM1202 860l-343 343v-343h343z" />
    <glyph glyph-name="e" unicode="e" horiz-adv-x="1497" 
d="M1200 1372v-1372h-1029c-23.333 0 -45.5 4.5 -66.5 13.5s-39.167 21.167 -54.5 36.5s-27.5 33.5 -36.5 54.5s-13.5 43.167 -13.5 66.5v1029c0 24 4.5 46.333 13.5 67s21.167 38.834 36.5 54.501s33.5 28 54.5 37s43.167 13.5 66.5 13.5h1029zM1029 1200h-171v-345
l-173 172l-171 -171v344h-171v-1029h686v1029z" />
    <glyph glyph-name="f" unicode="f" horiz-adv-x="1532" 
d="M862 1370c70 0 135.832 -13.332 197.499 -39.999s115.5 -62.834 161.5 -108.501s82.333 -99.334 109 -161.001s40 -127.5 40 -197.5s-13.333 -135.833 -40 -197.5s-63 -115.5 -109 -161.5s-99.833 -82.333 -161.5 -109s-127.5 -40 -197.5 -40
c-34 0 -66.5 3.33301 -97.5 10s-61.5 15.667 -91.5 27l-392 -392l-281 282l392 392c-11.333 29.333 -20.666 59.666 -27.999 90.999s-11 64 -11 98c0 70 13.333 135.833 40 197.5s63.167 115.334 109.5 161.001s100.333 81.834 162 108.501s127.5 40 197.5 40z
M861.999 526.001c46.667 0 90.334 8.83301 131.001 26.5s76.334 41.667 107.001 72s54.834 66 72.501 107s26.5 84.833 26.5 131.5c0 46 -8.83301 89.5 -26.5 130.5s-41.834 76.833 -72.501 107.5s-66.334 54.834 -107.001 72.501s-84.334 26.5 -131.001 26.5
c-46 0 -89.5 -8.83301 -130.5 -26.5s-76.833 -41.834 -107.5 -72.501s-54.834 -66.5 -72.501 -107.5s-26.5 -84.5 -26.5 -130.5c0 -46.667 8.83301 -90.5 26.5 -131.5s41.834 -76.667 72.501 -107s66.5 -54.333 107.5 -72s84.5 -26.5 130.5 -26.5z" />
    <glyph glyph-name="g" unicode="g" horiz-adv-x="1546" 
d="M500 1000c0 -18 -3.5 -35 -10.5 -51s-16.333 -29.833 -28 -41.5s-25.334 -20.834 -41.001 -27.501s-32.5 -10 -50.5 -10c-18.667 0 -36.167 3.33301 -52.5 10s-30.5 15.834 -42.5 27.501s-21.5 25.5 -28.5 41.5s-10.5 33 -10.5 51s3.5 35 10.5 51s16.5 30 28.5 42
s26.167 21.667 42.5 29s33.833 11 52.5 11c18 0 34.833 -3.66699 50.5 -11s29.334 -17 41.001 -29s21 -26 28 -42s10.5 -33 10.5 -51zM569 1370l801 -801h-569v-569l-801 801v569h569zM151 1215v-352l37.5 -36.5l71.5 -70.5l92.5 -93l103 -103.5l102 -103l89.5 -90.5v353
h353l-89 90.5l-102 103l-103.5 103.5l-93.5 93l-71.5 70l-37.5 36h-352z" />
    <glyph glyph-name="h" unicode="h" horiz-adv-x="1581" 
d="M992 1109c-22 0 -43 -5 -63 -15s-37.667 -20.667 -53 -32c-18 -13.333 -34.667 -28.666 -50 -45.999l-139 -149l-140 149c-16 17.333 -32.667 32.666 -50 45.999c-15.333 11.333 -33 22 -53 32s-40.667 15 -62 15c-26.667 0 -51.667 -4.66699 -75 -14
s-44.333 -22 -63 -38s-34 -35 -46 -57s-20 -45.667 -24 -71l513 -588l512 588c-4 25.333 -12 49 -24 71s-27.167 41 -45.5 57s-39.333 28.667 -63 38s-48.5 14 -74.5 14zM992 1280c52.667 0 101.999 -10 147.999 -30s86.333 -47.333 121 -82s62 -75 82 -121
s30 -95.333 30 -148v-32l-686 -787l-687 787v32c0 52.667 10 102 30 148s47.333 86.333 82 121s75.167 62 121.5 82s95.833 30 148.5 30c64.667 0 122.834 -15.333 174.501 -46s95.167 -70.334 130.5 -119.001c34.667 48.667 78 88.334 130 119.001s110.333 46 175 46z" />
    <glyph glyph-name="i" unicode="i" horiz-adv-x="859" 
d="M85 686c24 0 44.334 -8.33301 61.001 -25s25 -36.667 25 -60v-343c0 -24 -8.33301 -44.333 -25 -61s-37 -25 -61 -25h-85v-172h686v172h-86c-12 0 -23.167 2.16699 -33.5 6.5s-19.333 10.5 -27 18.5s-13.834 17.167 -18.501 27.5s-7 21.5 -7 33.5v600h-514v-172h85z
M514.001 1201c0 -24 -4.5 -46.333 -13.5 -67s-21.333 -38.834 -37 -54.501s-33.834 -28 -54.501 -37s-42.667 -13.5 -66 -13.5c-24 0 -46.333 4.5 -67 13.5s-38.834 21.333 -54.501 37s-28 33.834 -37 54.501s-13.5 43 -13.5 67s4.5 46.333 13.5 67s21.333 38.834 37 54.501
s33.834 28 54.501 37s43 13.5 67 13.5c23.333 0 45.333 -4.5 66 -13.5s38.834 -21.333 54.501 -37s28 -33.834 37 -54.501s13.5 -43 13.5 -67z" />
    <glyph glyph-name="j" unicode="j" horiz-adv-x="1600" 
d="M1027 856c42.667 0 84.667 -5.99609 126 -17.9961s78 -31.5 110 -58.5s57.833 -62.333 77.5 -106s29.5 -96.834 29.5 -159.501c0 -61.333 -9.83301 -113.666 -29.5 -156.999s-45.5 -78.833 -77.5 -106.5s-68.667 -47.834 -110 -60.501s-83.333 -19 -126 -19h-171
c-23.333 0 -45.5 -4.5 -66.5 -13.5s-39.167 -21.167 -54.5 -36.5s-27.5 -33.333 -36.5 -54s-13.5 -43 -13.5 -67c-47.333 0 -91.833 9 -133.5 27s-78 42.5 -109 73.5s-55.5 67.167 -73.5 108.5s-27 85.666 -27 132.999v172c0 34 3.66699 65.167 11 93.5s17 54.166 29 77.499
h-40c-42.667 0 -84.5 6.33301 -125.5 19s-77.5 32.667 -109.5 60s-57.833 62.666 -77.5 105.999s-29.5 95.666 -29.5 156.999c-0 63.333 9.83301 116.833 29.5 160.5s45.5 79 77.5 106s68.5 46.5 109.5 58.5s82.833 18 125.5 18h343c42.667 0 84.5 -6.66699 125.5 -20
s77.5 -34 109.5 -62s57.833 -63.667 77.5 -107s29.5 -94.666 29.5 -153.999v-171zM514 856.004c56 0 107.669 -12.333 155.002 -37s87 -58 119 -100c20.667 16 37.167 35.833 49.5 59.5s18.5 49.5 18.5 77.5v171c0 37.333 -5.83301 67.333 -17.5 90s-26.334 40 -44.001 52
s-36.334 20 -56.001 24s-37.5 6 -53.5 6h-343c-42.667 0 -75.667 -6.5 -99 -19.5s-40.333 -28.5 -51 -46.5s-16.834 -36.833 -18.501 -56.5s-2.5 -36.167 -2.5 -49.5c0 -10.667 0.833008 -25.5 2.5 -44.5s7.83398 -37.833 18.501 -56.5s27.667 -35 51 -49s56.333 -21 99 -21
h172zM1027 342.004c28.667 0 52.8311 3.33203 72.498 9.99902s35.834 15.167 48.501 25.5s22.5 21.833 29.5 34.5s12 25.334 15 38.001s4.83301 24.667 5.5 36s1 20.666 1 27.999c0 12.667 -0.833008 28.834 -2.5 48.501s-8 38.5 -19 56.5s-28.167 33.5 -51.5 46.5
s-56.333 19.5 -99 19.5h-47c-14.667 -25.333 -32.334 -48.5 -53.001 -69.5s-43.667 -39 -69 -54s-52.666 -26.667 -81.999 -35s-59.666 -12.5 -90.999 -12.5c0 33.333 -8.5 63.166 -25.5 89.499s-39.5 46.5 -67.5 60.5c-20 -12 -38 -30.167 -54 -54.5
s-24 -56.166 -24 -95.499v-172c0 -28 6.16699 -53.833 18.5 -77.5s28.833 -43.167 49.5 -58.5c32 42 71.5 75.167 118.5 99.5s98.833 36.5 155.5 36.5h171zM1015 771.003l-2 -6l-2 -6l2 6z" />
    <glyph glyph-name="k" unicode="k" horiz-adv-x="1527" 
d="M941 1199c-35.333 0 -68.501 -6.83398 -99.501 -20.501s-58 -32.167 -81 -55.5s-41.333 -50.666 -55 -81.999s-20.5 -64.666 -20.5 -99.999c0 -7.33301 0.666992 -14.5 2 -21.5l5 -26.5l14 -89l-62 -61l-473 -473v-99h171v171h172v172h171v71l51 48l7 11l65 62l89 -18
c8.66699 -1.33301 16.334 -2.16602 23.001 -2.49902s13.667 -0.5 21 -0.5c36 0 69.667 6.83301 101 20.5s58.666 32 81.999 55s41.666 50 54.999 81s20 64.167 20 99.5s-6.66699 68.666 -20 99.999s-31.666 58.666 -54.999 81.999s-50.666 41.833 -81.999 55.5
s-65 20.5 -101 20.5zM940.999 1370c59.333 0 114.999 -11.166 166.999 -33.499s97.5 -53 136.5 -92s69.667 -84.5 92 -136.5s33.5 -107.667 33.5 -167c0 -58.667 -11.167 -114 -33.5 -166s-53 -97.333 -92 -136s-84.5 -69.167 -136.5 -91.5s-107.667 -33.5 -167 -33.5
c-13.333 0 -26.166 0.5 -38.499 1.5s-25.5 2.83301 -39.5 5.5l-7 -7v-172h-171v-171h-171v-171h-514v342l521 521c-2.66699 14 -4.5 27.167 -5.5 39.5s-1.5 25.166 -1.5 38.499c0 59.333 11.167 115 33.5 167s52.833 97.5 91.5 136.5s84 69.667 136 92
s107.333 33.5 166 33.5zM1027 941c0 -24 -8.33301 -44.167 -25 -60.5s-37 -24.5 -61 -24.5s-44.167 8.16699 -60.5 24.5s-24.5 36.5 -24.5 60.5s8.16699 44.333 24.5 61s36.5 25 60.5 25s44.333 -8.33301 61 -25s25 -37 25 -61z" />
    <glyph glyph-name="l" unicode="l" horiz-adv-x="1306" 
d="M601 1372c58.667 0 113.992 -11.333 165.992 -34s97.5 -53.334 136.5 -92.001s69.667 -84.167 92 -136.5s33.5 -107.833 33.5 -166.5v-686c0 -35.333 -6.66699 -68.666 -20 -99.999s-31.666 -58.666 -54.999 -81.999s-50.666 -41.666 -81.999 -54.999
s-64.666 -20 -99.999 -20h-515c-35.333 0 -68.666 6.66699 -99.999 20s-58.666 31.666 -81.999 54.999s-41.666 50.666 -54.999 81.999s-20 64.666 -20 99.999v600h858v86c0 35.333 -6.83301 68.666 -20.5 99.999s-32.167 58.666 -55.5 81.999s-50.5 41.666 -81.5 54.999
s-64.167 20 -99.5 20s-68.666 -6.66699 -99.999 -20s-58.666 -31.666 -81.999 -54.999s-41.833 -50.666 -55.5 -81.999s-20.5 -64.666 -20.5 -99.999h-171c0 58.667 11.167 114.167 33.5 166.5s53 97.833 92 136.5s84.5 69.334 136.5 92.001s107.667 34 167 34zM771.992 171
c12 0 23.166 2.16699 33.499 6.5s19.333 10.5 27 18.5s13.834 17.167 18.501 27.5s7 21.5 7 33.5v429h-686v-429c0 -24 8.33301 -44.333 25 -61s36.667 -25 60 -25h515zM599.991 428c0 -23.333 -8.33301 -43.333 -25 -60s-36.667 -25 -60 -25c-24 0 -44.333 8.33301 -61 25
s-25 36.667 -25 60c0 24 8.33301 44.333 25 61s37 25 61 25c23.333 0 43.333 -8.33301 60 -25s25 -37 25 -61z" />
    <glyph glyph-name="m" unicode="m" horiz-adv-x="1669" 
d="M689 718l-689 324v167h1372v-168zM690 528l682 324v-672h-1372v672z" />
    <glyph glyph-name="n" unicode="n" horiz-adv-x="1325" 
d="M685 1370c47.333 0 91.666 -9 132.999 -27s77.5 -42.5 108.5 -73.5s55.5 -67.333 73.5 -109s27 -86.167 27 -133.5v-685c0 -47.333 -9 -91.666 -27 -132.999s-42.5 -77.5 -73.5 -108.5s-67.167 -55.5 -108.5 -73.5s-85.666 -27 -132.999 -27h-343
c-47.333 0 -91.666 9 -132.999 27s-77.5 42.5 -108.5 73.5s-55.5 67.167 -73.5 108.5s-27 85.666 -27 132.999v685c0 47.333 9 91.833 27 133.5s42.5 78 73.5 109s67.167 55.5 108.5 73.5s85.666 27 132.999 27h343zM514 82c24 0 44.501 8.66699 61.501 26
s25.5 38.333 25.5 63c0 24 -8.5 44.667 -25.5 62s-37.5 26 -61.5 26c-12.667 0 -24.334 -2.33301 -35.001 -7s-20 -11 -28 -19s-14.333 -17.333 -19 -28s-7 -22 -7 -34c0 -24.667 8.5 -45.667 25.5 -63s38.167 -26 63.5 -26zM856.001 1027c0 24 -4.5 46.333 -13.5 67
s-21.167 38.834 -36.5 54.501s-33.333 28 -54 37s-43 13.5 -67 13.5h-343c-23.333 0 -45.5 -4.5 -66.5 -13.5s-39.167 -21.333 -54.5 -37s-27.5 -33.834 -36.5 -54.501s-13.5 -43 -13.5 -67v-685h685v685z" />
    <glyph glyph-name="o" unicode="o" horiz-adv-x="1669" 
d="M1370 0h-1370v856h1370v-856zM770 1370h429l171 -343h-600v343zM599 1027h-599l171 343h428v-343z" />
    <glyph glyph-name="p" unicode="p" horiz-adv-x="1586" 
d="M1272 1272c33.333 -33.333 58.333 -71.168 75 -113.501s25 -85.333 25 -129s-8.33301 -86.667 -25 -129s-41.667 -80.166 -75 -113.499l-786 -787h-486l2 486l785 786c34 34 72 59.167 114 75.5s85 24.5 129 24.5s86.833 -8.16699 128.5 -24.5s79.5 -41.5 113.5 -75.5z
M1149 905.998l-242 243l-727 -727c16.667 14.667 35.167 25.5 55.5 32.5s40.833 10.333 61.5 10s41 -4.5 61 -12.5s38 -20 54 -36c16.667 -17.333 29.167 -36.5 37.5 -57.5s12.5 -42.5 12.5 -64.5s-4.16699 -43.667 -12.5 -65s-20.833 -40.333 -37.5 -57h3z" />
    <glyph glyph-name="q" unicode="q" horiz-adv-x="1581" 
d="M429 1119c-35.333 0 -68.6689 -6.83496 -100.002 -20.502s-58.666 -32.167 -81.999 -55.5s-41.833 -50.666 -55.5 -81.999s-20.5 -64.666 -20.5 -99.999v-428c0 -28 6.33301 -54 19 -78s29.334 -44 50.001 -60c32 42 71.667 75.5 119 100.5s99 37.5 155 37.5h343
c47.333 0 91.833 9 133.5 27s78 42.5 109 73.5s55.5 67.333 73.5 109s27 86.167 27 133.5s-9 91.833 -27 133.5s-42.5 78 -73.5 109s-67.333 55.5 -109 73.5s-86.167 27 -133.5 27h-428zM856.997 1290c71.333 0 138.333 -13.499 201 -40.499s117.167 -63.667 163.5 -110
s83 -100.833 110 -163.5s40.5 -129.334 40.5 -200.001c0 -71.333 -13.5 -138.166 -40.5 -200.499s-63.667 -116.833 -110 -163.5s-100.833 -83.5 -163.5 -110.5s-129.667 -40.5 -201 -40.5h-343c-23.333 0 -45.5 -4.5 -66.5 -13.5s-39.167 -21.333 -54.5 -37
s-27.5 -33.834 -36.5 -54.501s-13.5 -42.667 -13.5 -66c-47.333 0 -91.833 9 -133.5 27s-78 42.5 -109 73.5s-55.5 67.333 -73.5 109s-27 86.167 -27 133.5v428c0 59.333 11.167 115 33.5 167s53 97.5 92 136.5s84.5 69.667 136.5 92s107.667 33.5 167 33.5h428z" />
    <glyph glyph-name="r" unicode="r" horiz-adv-x="1669" 
d="M342 171c0 -23.333 -4.5 -45.5 -13.5 -66.5s-21.167 -39.167 -36.5 -54.5s-33.333 -27.5 -54 -36.5s-43 -13.5 -67 -13.5c-23.333 0 -45.5 4.5 -66.5 13.5s-39.167 21.167 -54.5 36.5s-27.5 33.5 -36.5 54.5s-13.5 43.167 -13.5 66.5c0 24 4.5 46.333 13.5 67
s21.167 38.667 36.5 54s33.5 27.5 54.5 36.5s43.167 13.5 66.5 13.5c24 0 46.333 -4.5 67 -13.5s38.667 -21.167 54 -36.5s27.5 -33.333 36.5 -54s13.5 -43 13.5 -67zM258 685c59.333 0 114.997 -11.165 166.997 -33.498s97.333 -53 136 -92s69.167 -84.5 91.5 -136.5
s33.5 -107.667 33.5 -167h-171c0 36 -6.66699 69.667 -20 101s-31.666 58.666 -54.999 81.999s-50.666 41.666 -81.999 54.999s-64.666 20 -99.999 20v171zM255.997 1027c70.667 0 139.001 -9.16797 205.001 -27.501s127.5 -44.166 184.5 -77.499s109 -73.5 156 -120.5
s87.167 -99 120.5 -156s59.166 -118.5 77.499 -184.5s27.5 -134.333 27.5 -205h-171c0 55.333 -7.16699 108.5 -21.5 159.5s-34.5 98.833 -60.5 143.5s-57.167 85.167 -93.5 121.5s-76.833 67.5 -121.5 93.5s-92.5 46.167 -143.5 60.5s-104.167 21.5 -159.5 21.5v171z
M255.998 1370c102 0 200.5 -13.3301 295.5 -39.9971s183.667 -64.167 266 -112.5s157.5 -106.333 225.5 -174s126.167 -142.834 174.5 -225.501s85.833 -171.334 112.5 -266.001s40 -193.334 40 -296.001h-171c0 86.667 -11.333 170.167 -34 250.5s-54.5 155.5 -95.5 225.5
s-90.167 133.667 -147.5 191s-121 106.5 -191 147.5s-145 72.667 -225 95s-163.333 33.5 -250 33.5v171z" />
    <glyph glyph-name="s" unicode="s" horiz-adv-x="1591" 
d="M1112 0l-427 329l-429 -329l166 530l-422 326h514l171 514l171 -514h514l-423 -327z" />
    <glyph glyph-name="t" unicode="t" 
d="M1372 1029h-171.005v-772c0 -35.333 -6.83301 -68.5 -20.5 -99.5s-32.167 -58.167 -55.5 -81.5s-50.666 -41.833 -81.999 -55.5s-64.666 -20.5 -99.999 -20.5h-514c-35.333 -0 -68.666 6.83301 -99.999 20.5s-58.666 32.167 -81.999 55.5s-41.833 50.5 -55.5 81.5
s-20.5 64.167 -20.5 99.5v772h-171v172h171h172c0 24 4.5 46.333 13.5 67s21.167 38.667 36.5 54s33.5 27.5 54.5 36.5s43.167 13.5 66.5 13.5h343c24 0 46.333 -4.5 67 -13.5s38.834 -21.167 54.501 -36.5s28 -33.333 37 -54s13.5 -43 13.5 -67h172h171v-172zM1029 1029
h-686.001v-772c0 -12 2.33301 -23.167 7 -33.5s10.834 -19.333 18.501 -27s16.667 -13.667 27 -18s21.5 -6.5 33.5 -6.5h514c24 0 44.333 8.33301 61 25s25 36.667 25 60v772zM599.994 429c0 -12 -2.16699 -23.167 -6.5 -33.5s-10.5 -19.333 -18.5 -27
s-17.167 -13.834 -27.5 -18.501s-21.5 -7 -33.5 -7s-23.167 2.33301 -33.5 7s-19.333 10.834 -27 18.501s-13.667 16.667 -18 27s-6.5 21.5 -6.5 33.5s2.16699 23.167 6.5 33.5s10.333 19.333 18 27s16.667 13.834 27 18.501s21.5 7 33.5 7s23.167 -2.33301 33.5 -7
s19.5 -10.834 27.5 -18.501s14.167 -16.667 18.5 -27s6.5 -21.5 6.5 -33.5zM599.994 772c0 -12 -2.16699 -23.167 -6.5 -33.5s-10.5 -19.333 -18.5 -27s-17.167 -13.834 -27.5 -18.501s-21.5 -7 -33.5 -7s-23.167 2.33301 -33.5 7s-19.333 10.834 -27 18.501
s-13.667 16.667 -18 27s-6.5 21.5 -6.5 33.5s2.16699 23.167 6.5 33.5s10.333 19.333 18 27s16.667 13.834 27 18.501s21.5 7 33.5 7s23.167 -2.33301 33.5 -7s19.5 -10.834 27.5 -18.501s14.167 -16.667 18.5 -27s6.5 -21.5 6.5 -33.5zM942.994 429
c0 -12 -2.16699 -23.167 -6.5 -33.5s-10.5 -19.333 -18.5 -27s-17.167 -13.834 -27.5 -18.501s-21.5 -7 -33.5 -7s-23.167 2.33301 -33.5 7s-19.333 10.834 -27 18.501s-13.667 16.667 -18 27s-6.5 21.5 -6.5 33.5s2.16699 23.167 6.5 33.5s10.333 19.333 18 27
s16.667 13.834 27 18.501s21.5 7 33.5 7s23.167 -2.33301 33.5 -7s19.5 -10.834 27.5 -18.501s14.167 -16.667 18.5 -27s6.5 -21.5 6.5 -33.5zM942.994 772c0 -12 -2.16699 -23.167 -6.5 -33.5s-10.5 -19.333 -18.5 -27s-17.167 -13.834 -27.5 -18.501s-21.5 -7 -33.5 -7
s-23.167 2.33301 -33.5 7s-19.333 10.834 -27 18.501s-13.667 16.667 -18 27s-6.5 21.5 -6.5 33.5s2.16699 23.167 6.5 33.5s10.333 19.333 18 27s16.667 13.834 27 18.501s21.5 7 33.5 7s23.167 -2.33301 33.5 -7s19.5 -10.834 27.5 -18.501s14.167 -16.667 18.5 -27
s6.5 -21.5 6.5 -33.5z" />
    <glyph glyph-name="u" unicode="u" horiz-adv-x="1311" 
d="M514 686c-71.333 0 -138.167 -13.5 -200.5 -40.5s-116.666 -63.667 -162.999 -110s-83 -100.833 -110 -163.5s-40.5 -129.667 -40.5 -201c0 -23.333 4.5 -45.5 13.5 -66.5s21.167 -39.167 36.5 -54.5s33.333 -27.5 54 -36.5s43 -13.5 67 -13.5h686
c24 0 46.333 4.5 67 13.5s38.834 21.167 54.501 36.5s28 33.5 37 54.5s13.5 43.167 13.5 66.5c0 71.333 -13.5 138.333 -40.5 201s-63.833 117.167 -110.5 163.5s-101.334 83 -164.001 110s-129.334 40.5 -200.001 40.5zM770.999 1115
c0 -35.333 -6.66699 -68.666 -20 -99.999s-31.666 -58.666 -54.999 -81.999s-50.666 -41.833 -81.999 -55.5s-64.666 -20.5 -99.999 -20.5s-68.666 6.83301 -99.999 20.5s-58.666 32.167 -81.999 55.5s-41.666 50.666 -54.999 81.999s-20 64.666 -20 99.999
s6.66699 68.666 20 99.999s31.666 58.666 54.999 81.999s50.666 41.666 81.999 54.999s64.666 20 99.999 20s68.666 -6.66699 99.999 -20s58.666 -31.666 81.999 -54.999s41.666 -50.666 54.999 -81.999s20 -64.666 20 -99.999z" />
    <glyph glyph-name="v" unicode="v" horiz-adv-x="1556" 
d="M342 361c-47.333 0 -91.666 8.99805 -132.999 26.998s-77.5 42.5 -108.5 73.5s-55.5 67.333 -73.5 109s-27 86.167 -27 133.5c0 48 9 92.833 27 134.5s42.5 77.834 73.5 108.501s67.167 54.834 108.5 72.501s85.666 26.5 132.999 26.5v-685zM514 1046l342 171v-1027
l-342 171v685zM1027 360.998l0.000976562 171.001c7.33301 0 14.333 0.666992 21 2s13.667 3 21 5c18.667 5.33301 36 13.166 52 23.499s29.667 22.666 41 36.999s20.333 30.333 27 48s10 36.5 10 56.5c0 19.333 -3.33301 38 -10 56s-15.667 34.333 -27 49
s-25 27.334 -41 38.001s-33.333 18.667 -52 24c-7.33301 2 -14.333 3.16699 -21 3.5s-13.667 0.5 -21 0.5v171c14 0 27.833 -1 41.5 -3s27.5 -4.66699 41.5 -8c38 -9.33301 73 -24.5 105 -45.5s59.5 -46 82.5 -75s40.833 -61.5 53.5 -97.5s19 -73.667 19 -113
s-6.33301 -77 -19 -113s-30.5 -68.5 -53.5 -97.5s-50.5 -54.167 -82.5 -75.5s-67 -37 -105 -47c-26.667 -6.66699 -54.334 -10 -83.001 -10z" />
    <glyph glyph-name="w" unicode="w" horiz-adv-x="1556" 
d="M1164 514c-2.66699 -8.66699 -5.33398 -16.834 -8.00098 -24.501s-5.66699 -15.167 -9 -22.5l83 -204l-120 -122l-206 82c-7.33301 -3.33301 -15 -6.5 -23 -9.5l-25 -9.5l-85 -204h-171l-86 203c-16 4.66699 -32.667 11.334 -50 20.001l-202 -83l-121 120l81 203
c-8 16.667 -15 33.667 -21 51l-201 85v171l201 86l10 26c3.33301 8.66699 7 17 11 25l-84 201l122 121l203 -81l25 10c8 3.33301 16 6.33301 24 9l85 203h172l87 -203l24.5 -9.5c7.66699 -3 15.167 -6.5 22.5 -10.5l204 85l122 -122l-84 -206
c4.66699 -7.33301 8.33398 -14.833 11.001 -22.5l8 -23.5l206 -85v-172zM684 429c35.333 0 68.5 6.66699 99.5 20s58.167 31.666 81.5 54.999s41.666 50.5 54.999 81.5s20 64.167 20 99.5s-6.66699 68.666 -20 99.999s-31.666 58.666 -54.999 81.999
s-50.5 41.833 -81.5 55.5s-64.167 20.5 -99.5 20.5c-36 0 -69.667 -6.83301 -101 -20.5s-58.666 -32.167 -81.999 -55.5s-41.666 -50.666 -54.999 -81.999s-20 -64.666 -20 -99.999s6.66699 -68.5 20 -99.5s31.666 -58.167 54.999 -81.5s50.666 -41.666 81.999 -54.999
s65 -20 101 -20z" />
    <glyph glyph-name="x" unicode="x" horiz-adv-x="1473" 
d="M1200 325l-240 -240l-360 360l-360 -360l-240 240l360 360l-360 360l240 240l360 -360l360 360l240 -240l-361 -360l361 -360v0z" />
    <glyph glyph-name="y" unicode="y" horiz-adv-x="1560" 
d="M512 160l-512 512l244 245l268 -268l616 616l244 -245l-860 -860v0v0z" />
    <glyph glyph-name="z" unicode="z" horiz-adv-x="982" 
d="M599 1370c24 0 44.332 -8.33301 60.999 -25s25 -37 25 -61v-942c0 -47.333 -9 -91.666 -27 -132.999s-42.5 -77.5 -73.5 -108.5s-67.333 -55.5 -109 -73.5s-86.167 -27 -133.5 -27s-91.666 9 -132.999 27s-77.5 42.5 -108.5 73.5s-55.5 67.167 -73.5 108.5
s-27 85.666 -27 132.999v942c-0 24 8.33301 44.333 25 61s36.667 25 60 25h514zM426.999 342c12 0 23.3311 2.33496 33.998 7.00195s19.834 10.834 27.501 18.501s13.834 16.667 18.501 27s7 21.166 7 32.499c0 24 -8.5 44.5 -25.5 61.5s-37.5 25.5 -61.5 25.5
c-11.333 0 -22.166 -2.33301 -32.499 -7s-19.333 -10.834 -27 -18.501s-13.834 -16.834 -18.501 -27.501s-7 -22 -7 -34c0 -23.333 8.33301 -43.333 25 -60s36.667 -25 60 -25zM513.997 1199h-343v-514h87c0 23.333 8.33301 43.333 25 60s37 25 61 25
s44.333 -8.33301 61 -25s25 -36.667 25 -60h84v514z" />
    <glyph glyph-name="braceleft" unicode="{" 
d="M200 200c-64.667 65.333 -114.169 139.334 -148.502 222.001s-51.5 170.334 -51.5 263.001c0 94.667 18 183.5 54 266.5s85 155.5 147 217.5s134.5 111 217.5 147s171.833 54 266.5 54l85 -86l-85 -85c-71.333 0 -138.166 -13.5 -200.499 -40.5
s-116.666 -63.667 -162.999 -110s-83 -100.833 -110 -163.5s-40.5 -129.334 -40.5 -200.001c0 -68.667 13 -134.334 39 -197.001s63.333 -118 112 -166l-106 -14zM684.998 0.000976562l-86 85l86 86c70.667 0 137.334 13.5 200.001 40.5s117.167 63.667 163.5 110
s83 100.666 110 162.999s40.5 129.166 40.5 200.499c0 68.667 -13 134.167 -39 196.5s-63.333 117.833 -112 166.5l106 14l15 108c65.333 -65.333 115.166 -139.666 149.499 -222.999s51.5 -170.666 51.5 -261.999c0 -94.667 -18 -183.5 -54 -266.5s-85 -155.5 -147 -217.5
s-134.5 -111 -217.5 -147s-171.833 -54 -266.5 -54z" />
    <glyph glyph-name="bar" unicode="|" horiz-adv-x="1542" 
d="M1372 1029c0 -32 -4.33008 -62.834 -12.9971 -92.501s-20.667 -57.334 -36 -83.001s-34 -49 -56 -70s-46 -38.833 -72 -53.5c0.666992 -7.33301 1.5 -14.5 2.5 -21.5s1.5 -14.167 1.5 -21.5c0 -71.333 -13.5 -138.166 -40.5 -200.499s-63.833 -116.833 -110.5 -163.5
s-101.334 -83.5 -164.001 -110.5s-129.334 -40.5 -200.001 -40.5c-52.667 0 -103.167 7.66699 -151.5 23s-93.166 37 -134.499 65l-398 -260l261 395c-28.667 42 -51 87.5 -67 136.5s-24 100.833 -24 155.5c0 70.667 13.5 137.334 40.5 200.001s63.667 117.167 110 163.5
s100.666 83 162.999 110s129.166 40.5 200.499 40.5c8 0 16 -0.5 24 -1.5s15.667 -1.83301 23 -2.5c14.667 26 32.5 49.667 53.5 71s44.167 39.833 69.5 55.5s52.833 27.667 82.5 36s60.5 12.5 92.5 12.5c47.333 0 91.833 -9 133.5 -27s78 -42.5 109 -73.5
s55.5 -67.333 73.5 -109s27 -86.167 27 -133.5zM684.003 343.999c47.333 0 91.832 9.00293 133.499 27.0029s78 42.5 109 73.5s55.5 67.167 73.5 108.5s27 85.666 27 132.999c-15.333 0 -30.333 1.16699 -45 3.5s-29 5.5 -43 9.5l-135 -135
c-16.667 -16.667 -35.5 -29.167 -56.5 -37.5s-42.5 -12.5 -64.5 -12.5s-43.5 4.16699 -64.5 12.5s-39.833 20.833 -56.5 37.5s-29.167 35.5 -37.5 56.5s-12.5 42.5 -12.5 64.5s4.16699 43.667 12.5 65s20.833 40.333 37.5 57l136 136
c-3.33301 13.333 -6.16602 27.166 -8.49902 41.499s-3.5 29.166 -3.5 44.499v2v-1h-2c-47.333 0 -91.833 -9 -133.5 -27s-78 -42.5 -109 -73.5s-55.5 -67.333 -73.5 -109s-27 -86.167 -27 -133.5s9 -91.833 27 -133.5s42.5 -78 73.5 -109s67.333 -55.5 109 -73.5
s86.167 -27 133.5 -27zM1029 857.002c23.333 0 45.333 4.5 66 13.5s38.834 21.333 54.501 37s28 33.834 37 54.501s13.5 43 13.5 67c0 23.333 -4.5 45.333 -13.5 66s-21.333 38.834 -37 54.501s-33.834 28 -54.501 37s-42.667 13.5 -66 13.5c-24 0 -46.333 -4.5 -67 -13.5
s-38.834 -21.333 -54.501 -37s-28 -33.834 -37 -54.501s-13.5 -42.667 -13.5 -66c0 -24 4.5 -46.333 13.5 -67s21.333 -38.834 37 -54.501s33.834 -28 54.501 -37s43 -13.5 67 -13.5z" />
    <glyph glyph-name="braceright" unicode="}" horiz-adv-x="1537" 
d="M1029 686c0 -47.333 -9 -91.833 -27 -133.5s-42.5 -78 -73.5 -109s-67.333 -55.5 -109 -73.5s-86.167 -27 -133.5 -27s-91.833 9 -133.5 27s-78 42.5 -109 73.5s-55.5 67.333 -73.5 109s-27 86.167 -27 133.5s9 91.833 27 133.5s42.5 78 73.5 109s67.333 55.5 109 73.5
s86.167 27 133.5 27s91.833 -9 133.5 -27s78 -42.5 109 -73.5s55.5 -67.333 73.5 -109s27 -86.167 27 -133.5zM686 1230c-30 0 -58.833 -2.5 -86.5 -7.5s-55.167 -12.167 -82.5 -21.5h-3l172 172l171 -172h-2c-26.667 9.33301 -54 16.5 -82 21.5s-57 7.5 -87 7.5zM686 143
c30 0 59 2.5 87 7.5s55.333 12.167 82 21.5h2l-171 -172l-172 172h3c27.333 -9.33301 54.833 -16.5 82.5 -21.5s56.5 -7.5 86.5 -7.5zM1230 686c0 30 -2.66699 59 -8 87s-12.666 55.333 -21.999 82v3l172 -172l-172 -171v2c9.33301 27.333 16.666 54.833 21.999 82.5
s8 56.5 8 86.5zM142 686c0 -30 2.66699 -58.833 8 -86.5s12.333 -55.167 21 -82.5v-2l-171 171l171 172v-3c-8.66699 -26.667 -15.667 -54 -21 -82s-8 -57 -8 -87zM1071 302c21.333 21.333 39.832 43.668 55.499 67.001s29.834 47.666 42.501 72.999l2 2v-243h-242l1 2
c25.333 13.333 49.833 27.833 73.5 43.5s46.167 34.167 67.5 55.5zM300.999 1071c-21.333 -21.333 -39.834 -43.668 -55.501 -67.001s-29.834 -47.666 -42.501 -72.999l-2 -2v243h243l-3 -2c-25.333 -13.333 -49.666 -27.833 -72.999 -43.5s-45.666 -34.167 -66.999 -55.5z
M300.998 302c21.333 -21.333 43.667 -39.835 67 -55.502s47.666 -30.167 72.999 -43.5l3 -2h-243v243l2 -2c12.667 -25.333 26.834 -49.666 42.501 -72.999s34.167 -45.666 55.5 -66.999zM1071 1071c-21.333 21.333 -43.832 39.835 -67.499 55.502
s-48.167 30.167 -73.5 43.5l-1 2h242v-243l-2 2c-12.667 25.333 -26.834 49.666 -42.501 72.999s-34.167 45.666 -55.5 66.999z" />
    <glyph glyph-name="asciitilde" unicode="~" horiz-adv-x="1586" 
d="M1244 759l123 -123l-120 -121l-124 123l-638 -638h-316l-169 171v310l640 641l-128 127l121 121l127 -127l26 24c34 34 71.833 59.167 113.5 75.5s84.167 24.5 127.5 24.5c44 0 87 -8.16699 129 -24.5s80 -41.5 114 -75.5c33.333 -33.333 58.333 -71 75 -113
s25 -84.833 25 -128.5s-8.33301 -86.5 -25 -128.5s-41.667 -79.667 -75 -113zM1003 759l-240.999 241l-554 -553c30 -1.33301 59.167 -7.5 87.5 -18.5s54.166 -27.833 77.499 -50.5c24.667 -24.667 42.5 -52.667 53.5 -84s15.833 -63 14.5 -95z" />
  </font>
</defs>
</svg>
